<svg width="1440" height="1024" viewBox="0 0 1440 1024" fill="none" xmlns="http://www.w3.org/2000/svg">
<g clip-path="url(#clip0_3_51)">
<path d="M1440 0H0V1024H1440V0Z" fill="black"/>
<path opacity="0.62" d="M0 467.376L983 214V372.452L0 511.984V467.376Z" fill="url(#paint0_linear_3_51)" fill-opacity="0.3"/>
<path opacity="0.62" d="M-1 552.28L1437 512V694.606L-1 596.213V552.28Z" fill="url(#paint1_linear_3_51)" fill-opacity="0.5"/>
<path d="M1438 239C1493.23 239 1538 194.228 1538 139C1538 83.7715 1493.23 39 1438 39C1382.77 39 1338 83.7715 1338 139C1338 194.228 1382.77 239 1438 239Z" fill="url(#paint2_linear_3_51)" fill-opacity="0.1"/>
<path opacity="0.62" d="M0 483.224L586 373V491.33L0 511.638V483.224Z" stroke="url(#paint3_linear_3_51)" stroke-opacity="0.5" stroke-miterlimit="10"/>
<path opacity="0.62" d="M-2 549L1438 614.747V914.212L-2 582.065V549Z" stroke="url(#paint4_linear_3_51)" stroke-opacity="0.5" stroke-miterlimit="10"/>
<path opacity="0.62" d="M-3 549L1435 626.65V796.93L-3 579.451V549Z" stroke="url(#paint5_linear_3_51)" stroke-opacity="0.5" stroke-miterlimit="10"/>
<path opacity="0.62" d="M-2 457.409L1436 25V299.703L-2 511.751V457.409Z" stroke="url(#paint6_linear_3_51)" stroke-opacity="0.5" stroke-miterlimit="10"/>
<path opacity="0.62" d="M-57 558.235L787 488V644.853L-57 588.348V558.235Z" stroke="url(#paint7_linear_3_51)" stroke-opacity="0.5" stroke-miterlimit="10"/>
<path d="M-7 848C21.1665 848 44 825.167 44 797C44 768.833 21.1665 746 -7 746C-35.1665 746 -58 768.833 -58 797C-58 825.167 -35.1665 848 -7 848Z" fill="url(#paint8_linear_3_51)" fill-opacity="0.1"/>
</g>
<defs>
<linearGradient id="paint0_linear_3_51" x1="491.5" y1="511.984" x2="491.5" y2="214" gradientUnits="userSpaceOnUse">
<stop stop-color="#DC007C"/>
<stop offset="1" stop-color="#DC00BE" stop-opacity="0"/>
</linearGradient>
<linearGradient id="paint1_linear_3_51" x1="718" y1="694.606" x2="718" y2="512" gradientUnits="userSpaceOnUse">
<stop stop-color="#DC00BE"/>
<stop offset="1" stop-color="#DC00BE" stop-opacity="0"/>
</linearGradient>
<linearGradient id="paint2_linear_3_51" x1="1438" y1="267.889" x2="1438" y2="39" gradientUnits="userSpaceOnUse">
<stop offset="0.0625" stop-color="#150128"/>
<stop offset="1" stop-color="#C4C4C4" stop-opacity="0"/>
</linearGradient>
<linearGradient id="paint3_linear_3_51" x1="-481622" y1="-72585.4" x2="-582220" y2="-72585.4" gradientUnits="userSpaceOnUse">
<stop stop-color="white" stop-opacity="0.5"/>
<stop offset="0.15" stop-color="#F4F2F3" stop-opacity="0.99"/>
<stop offset="0.28" stop-color="#EFE7E9" stop-opacity="0.94"/>
<stop offset="0.4" stop-color="#E8D5D9" stop-opacity="0.87"/>
<stop offset="0.52" stop-color="#DEBCC1" stop-opacity="0.76"/>
<stop offset="0.64" stop-color="#D09CA3" stop-opacity="0.63"/>
<stop offset="0.75" stop-color="#C0747F" stop-opacity="0.47"/>
<stop offset="0.86" stop-color="#AD4553" stop-opacity="0.27"/>
<stop offset="0.97" stop-color="#971022" stop-opacity="0.05"/>
<stop offset="1" stop-color="#920417" stop-opacity="0"/>
</linearGradient>
<linearGradient id="paint4_linear_3_51" x1="-684204" y1="-146032" x2="-1.41748e+06" y2="-146032" gradientUnits="userSpaceOnUse">
<stop stop-color="#DC00BE"/>
<stop offset="0.15" stop-color="#F4F2F3" stop-opacity="0.99"/>
<stop offset="0.28" stop-color="#EFE7E9" stop-opacity="0.94"/>
<stop offset="0.4" stop-color="#E8D5D9" stop-opacity="0.87"/>
<stop offset="0.52" stop-color="#DEBCC1" stop-opacity="0.76"/>
<stop offset="0.64" stop-color="#D09CA3" stop-opacity="0.63"/>
<stop offset="0.75" stop-color="#C0747F" stop-opacity="0.47"/>
<stop offset="0.86" stop-color="#AD4553" stop-opacity="0.27"/>
<stop offset="0.97" stop-color="#971022" stop-opacity="0.05"/>
<stop offset="1" stop-color="#920417" stop-opacity="0"/>
</linearGradient>
<linearGradient id="paint5_linear_3_51" x1="-1.03647e+06" y1="-104717" x2="-1.42248e+06" y2="-104717" gradientUnits="userSpaceOnUse">
<stop stop-color="white"/>
<stop offset="0.15" stop-color="#F4F2F3" stop-opacity="0.99"/>
<stop offset="0.28" stop-color="#EFE7E9" stop-opacity="0.94"/>
<stop offset="0.4" stop-color="#E8D5D9" stop-opacity="0.87"/>
<stop offset="0.52" stop-color="#DEBCC1" stop-opacity="0.76"/>
<stop offset="0.64" stop-color="#D09CA3" stop-opacity="0.63"/>
<stop offset="0.75" stop-color="#C0747F" stop-opacity="0.47"/>
<stop offset="0.86" stop-color="#AD4553" stop-opacity="0.27"/>
<stop offset="0.97" stop-color="#971022" stop-opacity="0.05"/>
<stop offset="1" stop-color="#920417" stop-opacity="0"/>
</linearGradient>
<linearGradient id="paint6_linear_3_51" x1="-1.09091e+06" y1="-275988" x2="-1.42441e+06" y2="-275988" gradientUnits="userSpaceOnUse">
<stop stop-color="white" stop-opacity="0.5"/>
<stop offset="0.15" stop-color="#F4F2F3" stop-opacity="0.99"/>
<stop offset="0.28" stop-color="#EFE7E9" stop-opacity="0.94"/>
<stop offset="0.4" stop-color="#E8D5D9" stop-opacity="0.87"/>
<stop offset="0.52" stop-color="#DEBCC1" stop-opacity="0.76"/>
<stop offset="0.64" stop-color="#D09CA3" stop-opacity="0.63"/>
<stop offset="0.75" stop-color="#C0747F" stop-opacity="0.47"/>
<stop offset="0.86" stop-color="#AD4553" stop-opacity="0.27"/>
<stop offset="0.97" stop-color="#971022" stop-opacity="0.05"/>
<stop offset="1" stop-color="#920417" stop-opacity="0"/>
</linearGradient>
<linearGradient id="paint7_linear_3_51" x1="-631327" y1="-77129.3" x2="-835735" y2="-77129.3" gradientUnits="userSpaceOnUse">
<stop stop-color="#DC00BE" stop-opacity="0.7"/>
<stop offset="0.15" stop-color="#F4F2F3" stop-opacity="0.99"/>
<stop offset="0.28" stop-color="#EFE7E9" stop-opacity="0.94"/>
<stop offset="0.4" stop-color="#E8D5D9" stop-opacity="0.87"/>
<stop offset="0.52" stop-color="#DEBCC1" stop-opacity="0.76"/>
<stop offset="0.64" stop-color="#D09CA3" stop-opacity="0.63"/>
<stop offset="0.75" stop-color="#C0747F" stop-opacity="0.47"/>
<stop offset="0.86" stop-color="#AD4553" stop-opacity="0.27"/>
<stop offset="0.97" stop-color="#971022" stop-opacity="0.05"/>
<stop offset="1" stop-color="#920417" stop-opacity="0"/>
</linearGradient>
<linearGradient id="paint8_linear_3_51" x1="-7" y1="862.733" x2="-7" y2="746" gradientUnits="userSpaceOnUse">
<stop offset="0.0625" stop-color="#150128"/>
<stop offset="1" stop-color="#C4C4C4" stop-opacity="0"/>
</linearGradient>
<clipPath id="clip0_3_51">
<rect width="1440" height="1024" fill="white"/>
</clipPath>
</defs>
</svg>
